<svg width="223" height="215" viewBox="0 0 223 215" fill="none" xmlns="http://www.w3.org/2000/svg">
<path fill-rule="evenodd" clip-rule="evenodd" d="M5.14425 147.349C4.71873 140.634 4.2932 133.759 3.87918 126.987L3.10864 114.063L2.97063 111.687C2.3151 108.932 2.3266 106.017 2.4071 103.492C1.82057 103.538 1.22254 103.584 0.636006 103.63C0.279487 103.653 0.0609749 103.457 0.0149724 103.274C-0.0425307 103.079 0.0609749 102.838 0.405994 102.757C2.64862 102.229 2.89013 102.195 5.20175 101.747C35.7474 73.6263 45.9485 46.745 35.5174 21.8609C28.088 16.9598 19.359 10.2108 12.2516 6.22792C11.9986 6.07871 11.9986 5.84915 12.1251 5.68846C12.2516 5.52777 12.5277 5.44743 12.7922 5.59664C33.0218 16.8221 57.7481 23.8465 86.3042 26.475C99.2769 27.6687 113.066 28.0245 128.488 27.5424C138.92 27.2211 151.248 26.6127 163.554 24.5811C177.999 22.2052 189.833 18.0846 199.712 12.0013C199.85 11.9095 200.057 11.9325 200.172 12.0587C200.287 12.1735 200.275 12.3227 200.137 12.4145C182.024 24.5008 156.975 27.1751 134.848 28.1967C118.644 28.9427 104.027 28.828 90.5364 27.8064C76.6896 26.7505 64.0274 24.7533 52.0553 21.7576C39.0136 18.4978 27.4555 13.8722 16.5184 8.14474C29.8591 16.868 38.059 22.7447 51.4113 31.5597C55.5515 34.2915 59.6802 37.0232 63.8204 39.755C75.8041 47.6518 109.305 51.2673 124.256 50.2802C133.641 49.6604 142.853 48.0076 151.662 45.3791C159.701 42.9803 166.602 39.6172 173.916 36.0591C187.245 24.0417 200.758 12.0128 214.306 0.110188C214.41 0.0183647 214.536 -0.0160691 214.686 0.00688676C214.835 0.0413205 214.973 0.144622 215.031 0.270879C215.088 0.408614 215.054 0.534871 214.939 0.638173C210.235 4.73579 205.232 9.13184 199.217 14.4691C198.792 15.6398 198.24 16.8106 197.711 17.9354C197.182 19.0488 196.63 20.208 196.216 21.3673C195.261 24.0187 194.525 26.8193 194.019 29.6773C193.076 35.049 193.03 40.5355 193.869 45.976C195.434 56.1569 200.275 66.1312 208.257 75.6235C212.8 74.9578 217.676 74.2691 222.61 73.6378C222.782 73.6149 222.943 73.6952 222.989 73.8444C223.035 73.9821 222.932 74.1199 222.759 74.1543C215.548 75.6005 210.005 76.4499 203.15 77.414C184.45 107.693 184.738 141.863 185.014 174.908C189.12 180.543 193.306 186.225 197.469 191.792C197.55 191.895 197.504 192.01 197.389 192.067C197.251 192.124 197.09 192.09 197.009 191.987C193.524 187.487 190.028 182.885 186.325 177.926C186.233 177.961 186.107 177.949 185.992 177.938C162.128 176.124 139.414 185.41 128.086 201.617C127.982 206.506 127.833 210.822 127.66 214.805C127.66 214.92 127.545 215 127.396 215H127.384C127.246 214.989 127.131 214.897 127.131 214.782C127.028 209.295 127.016 204.831 127.028 200.01C109.271 181.668 88.9263 166.621 66.5576 155.303C59.5307 164.118 52.6533 173.025 45.6149 181.829C45.4539 182.035 45.1549 182.081 44.9019 181.955C44.6604 181.84 44.4994 181.576 44.6719 181.324C48.5821 175.677 52.9523 169.823 58.0241 163.418C57.4146 150.184 53.7229 138.66 46.7305 128.192C42.2108 121.42 36.4835 115.245 29.7096 109.851C28.985 117.529 24.6953 121.925 17.3119 122.557C13.1487 122.913 8.81295 121.088 6.0068 117.782C5.17875 116.806 4.50022 115.739 3.97119 114.557C4.67273 125.461 5.32826 136.537 5.9608 147.246M126.993 199.172C127.005 196.98 127.028 194.684 127.051 192.182C115.953 172.933 95.8267 157.082 71.8249 148.703C70.2838 150.597 68.7082 152.549 67.0176 154.672C90.9619 166.77 111.686 182.15 126.993 199.172ZM157.528 112.445C157.712 111.217 157.93 109.988 158.195 108.783C160.391 98.5564 165.244 89.0412 172.271 81.2477C169.971 81.5002 167.671 81.7527 165.428 81.9937C164.681 87.5491 162.944 92.7256 160.276 97.4086C158.563 100.404 156.067 103.767 151.754 103.09C149.88 102.803 148.155 101.816 146.602 100.163C144.819 105.351 144.256 110.803 144.946 116.382C144.957 116.485 144.865 116.577 144.739 116.588C144.704 116.588 144.658 116.588 144.624 116.577C144.635 116.588 144.647 116.611 144.658 116.623C144.681 116.634 144.693 116.646 144.716 116.646C144.762 116.669 144.808 116.692 144.842 116.714C144.934 116.772 145.003 116.841 145.015 116.933C145.026 116.99 145.003 117.059 144.969 117.116C149.569 124.164 154.342 131.314 159.172 138.385C157.136 131.142 156.435 123.59 157.09 116.164C157.194 114.901 157.344 113.673 157.528 112.445ZM89.8924 56.4668C89.4668 56.3406 89.0413 56.2258 88.6158 56.0995L89.8579 56.9259L89.8809 56.5127C89.8809 56.4898 89.8808 56.4783 89.8924 56.4668ZM75.3326 61.0236C74.5965 65.4655 73.0554 69.9649 70.7553 74.2921C69.3292 76.9664 67.6616 79.503 65.7755 81.856C61.6238 87.044 56.4485 91.3942 50.6407 94.4932L51.5953 94.3325C53.5734 93.9882 55.54 93.6438 57.5066 93.2995C60.2092 92.8174 68.2942 91.8188 70.0308 90.7858C77.0232 86.6193 82.2904 81.4543 85.6716 75.4513C88.4663 70.4929 89.2483 65.6721 89.6508 60.1512C89.7083 59.3593 89.7658 58.5558 89.8118 57.7409L86.3157 55.4338H86.2927C86.1662 55.3994 86.0626 55.319 85.9936 55.2272L75.114 48.0305C76.0111 52.1741 76.0801 56.5701 75.3326 61.0236ZM76.7586 140.841C81.2669 135.596 85.4071 130.809 90.1914 125.484C89.8694 118.895 88.5813 113.661 86.0741 108.841C85.7176 108.152 85.3381 107.475 84.9241 106.798C82.0489 102.046 77.9317 97.7415 72.3999 93.7242C71.6064 93.1503 70.7898 92.5764 69.9388 92.014C65.166 92.9092 61.3018 93.6324 57.7711 94.2636C56.1725 94.5506 54.5739 94.8375 52.9753 95.113L51.0087 95.4573C60.4163 100.06 68.2367 107.119 73.0439 115.383C77.9432 123.808 79.2543 132.807 76.7586 140.841ZM127.361 174.953C125.004 170.764 122.232 166.781 119.069 163.039C109.593 151.814 96.7007 142.769 81.6579 136.95C80.2778 138.557 78.8058 140.29 77.1382 142.287C75.3786 144.399 74.056 145.983 72.3999 148.015C78.4147 150.115 84.165 152.675 89.5703 155.625C105.809 164.463 119.012 176.801 127.074 190.988C127.108 188.888 127.131 186.695 127.177 184.251C127.235 180.979 127.292 178.179 127.361 174.953ZM155.273 84.45C155.871 83.8876 156.481 83.3367 157.113 82.8087C156.423 82.8775 155.722 82.9349 155.032 83.0038L154.583 83.0382C149.351 86.3439 145.9 89.42 143.382 92.9896C143.393 93.0125 143.393 93.047 143.393 93.0699C143.405 93.1158 143.416 93.1618 143.428 93.2077C143.911 94.9638 144.865 96.9036 146.004 98.476C147.948 93.1847 151.122 88.3984 155.273 84.45ZM146.832 99.5091C148.258 101.139 150.593 102.964 153.652 102.505C157.769 101.896 159.805 97.2135 161.15 94.1144C161.254 93.8734 161.357 93.6438 161.449 93.4258C163.025 89.8906 164.117 86.0684 164.715 82.0511C162.3 82.3036 160.276 82.4988 158.39 82.6824C152.939 87.7901 149.052 93.4487 146.832 99.5091ZM140.61 84.3467C138.022 87.0899 136.389 89.638 135.504 92.3583C134.986 93.9193 134.699 95.5147 134.618 97.0872C134.572 98.1776 134.618 99.8649 134.779 101.001C135.354 102.229 136.102 103.32 137.942 106.201C138.034 102.665 138.989 99.0385 140.668 95.664C141.231 94.5391 141.875 93.4487 142.588 92.3927C142.013 89.5347 142.324 86.6193 143.497 83.9335C142.646 83.9909 141.806 84.0598 140.955 84.1172C140.875 84.1401 140.748 84.1975 140.61 84.3467ZM127.959 133.805V133.484C127.867 133.426 127.798 133.346 127.787 133.266C127.775 133.208 127.775 133.151 127.798 133.093C127.821 133.036 127.856 132.99 127.913 132.944C127.936 132.933 127.948 132.921 127.971 132.91L128.051 126.471C124.613 118.482 116.93 112.835 105.832 110.149C104.015 112.031 102.555 113.57 101.243 114.993C100.967 115.303 100.68 115.601 100.404 115.911L99.9209 116.439C112.296 118.379 122.957 124.99 127.959 133.805ZM101.692 117.415C104.13 118.608 106.453 119.917 108.638 121.34C110.099 122.293 111.502 123.28 112.836 124.324C114.17 125.357 115.447 126.436 116.643 127.538C122.037 132.531 125.981 138.19 127.833 143.883L127.948 134.769C127.936 134.758 127.925 134.746 127.913 134.723C122.451 125.908 112.928 119.641 101.692 117.415ZM129.052 109.369C129.017 112.031 128.983 114.511 128.96 117.128C131.283 115.36 134.791 114.568 138.31 114.844C139.989 114.97 141.668 115.337 143.232 115.957C142.128 114.247 141.024 112.537 139.92 110.815C136.803 109.036 133.537 108.6 129.052 109.369ZM139.322 109.874L139.069 109.472C138.92 109.231 138.759 108.99 138.609 108.749C138.609 109.036 138.62 109.288 138.62 109.541C138.851 109.644 139.092 109.759 139.322 109.874ZM133.848 70.9061C126.637 72.9721 118.126 72.8917 111.076 70.5732C121.703 76.4614 133.629 72.8803 133.963 73.0409L134.664 72.3867L134.722 72.3293C135.665 71.434 136.608 70.5502 137.539 69.655L137.62 69.5746C137.079 69.8042 136.527 70.0223 135.952 70.2289L133.848 70.9061ZM102.796 84.6681C104.291 84.3697 105.418 84.1401 106.775 83.8646C108.65 83.4859 110.501 83.1071 112.365 82.7283C114.366 82.3266 114.4 82.4414 114.193 81.5461C114.021 80.8459 113.871 80.1228 113.722 79.4227C113.089 76.4269 112.445 73.3164 109.857 70.9175C109.443 70.688 109.029 70.4584 108.627 70.2289C110.708 75.5202 108.213 81.6379 102.796 84.6681ZM128.201 113.799C123.417 108.932 117.919 105.856 111.422 104.399L109.765 106.097C108.65 107.245 107.523 108.393 106.407 109.541C115.688 111.021 124.452 117.323 128.063 125.036C128.109 120.915 128.155 117.805 128.201 113.799ZM128.212 112.869C128.258 109.185 128.281 107.245 128.327 102.952C125.728 99.796 122.313 98.0514 117.873 97.6267C116.206 99.4287 114.343 101.391 112.02 103.767C118.759 105.351 124.613 108.645 128.212 112.869ZM117.367 96.5018C117.977 95.9279 119.012 94.9753 119.713 94.3325C120.104 93.3798 119.84 91.5893 117.597 88.1459C117.195 87.6524 116.769 87.1473 116.413 86.6538C115.642 85.5749 115.102 84.5304 114.642 83.0841C114.228 83.0956 113.227 83.3367 112.894 83.4055C112.583 83.4744 112.273 83.5318 111.962 83.6006C116.574 86.7226 118.69 91.8188 117.367 96.5018ZM118.506 96.961C122.474 97.3283 126.326 99.3025 128.35 102L128.396 97.9366C125.901 96.1116 123.428 95.2048 120.461 95.0212C120.392 95.0212 120.335 95.0097 120.277 95.0097C119.679 95.6525 119.092 96.3067 118.506 96.961ZM116.505 97.3283C116.907 96.0886 117.08 94.849 117.034 93.6324C116.907 89.9594 114.837 86.4472 111.088 83.7843C109.972 84.0253 108.868 84.2549 107.753 84.4845L106.637 84.714C111.272 89.1445 113.733 94.6195 113.607 100.198C114.538 99.2451 115.516 98.2809 116.505 97.3283ZM133.25 73.8903C132.548 73.7755 130.248 74.338 128.948 74.5905C128.109 74.7512 127.384 74.8889 127.016 74.9119C124.624 75.0266 122.221 74.8774 119.863 74.4527C117.666 74.0625 115.562 73.4427 113.584 72.6163C113.434 72.5474 113.262 72.4785 113.078 72.4097C112.687 72.249 112.261 72.0883 111.87 71.8932C113.526 74.0969 114.021 76.6221 114.504 79.0669C114.722 80.1687 114.941 81.2936 115.274 82.3725C115.884 84.3811 116.976 85.8503 118.149 87.4113C118.563 87.9623 118.989 88.5362 119.414 89.156C120.392 90.5792 120.542 91.6122 120.737 93.0585C120.76 93.1962 120.806 93.3684 120.76 93.4946C120.553 94.1144 120.645 94.2063 120.887 94.2981L120.956 94.3555C121.117 94.4702 122.405 94.6539 123.095 94.7572C123.693 94.849 124.049 94.8949 124.176 94.9408C125.797 95.4459 127.223 96.1805 128.408 97.1561C128.741 96.8003 130.501 95.7787 131.065 95.2737C131.076 95.2737 131.053 95.2737 131.065 95.2737C131.916 93.4372 135.653 85.6437 135.4 84.1057C135.331 83.658 134.837 83.0268 134.365 82.4299C133.974 81.9249 133.595 81.4543 133.422 81.0526C133.054 80.2032 132.801 79.3309 132.675 78.4471C132.594 77.9879 133.1 74.0395 133.25 73.8903ZM129.063 108.577C131.72 107.831 135.055 108.106 138.08 109.311C138.022 108.795 137.976 108.267 137.953 107.739C135.55 103.951 133.422 100.577 131.053 96.7658L129.121 97.8792C129.029 97.9481 129.075 107.486 129.063 108.577ZM105.487 108.772C104.82 101.059 101.266 93.9997 94.6306 87.1932C86.3502 88.869 78.6217 90.3841 71.0198 91.8188C82.0719 98.4646 89.6278 109.587 90.7549 120.238C90.9159 121.753 90.9504 123.268 90.8354 124.76C95.6657 119.389 100.599 114.086 105.487 108.772ZM106.016 108.209C108.052 106.006 110.444 103.435 112.951 100.875C113.158 94.9294 110.708 89.4085 105.878 84.8862C102.359 85.6208 98.8858 86.3439 95.5622 87.0211L95.5507 87.0326C101.784 92.4846 105.671 100.37 106.016 108.209ZM100.76 85.0813C107.316 81.0525 109.535 75.9793 107.546 69.5631C105.832 68.5072 104.119 67.3364 102.578 66.269C105.545 72.6507 103.348 80.536 97.1262 85.8044C98.3453 85.5634 99.5529 85.3223 100.76 85.0813ZM103.176 65.6262C103.912 66.0968 104.659 66.5559 105.407 67.038C105.487 67.0724 105.556 67.1069 105.637 67.1413C108.592 68.5186 111.755 69.8386 115.309 70.6765C115.895 70.8142 116.505 70.929 117.114 71.0438C117.264 71.0667 117.39 71.1012 117.54 71.1356C119.069 71.3996 120.657 71.5603 122.347 71.6062C127.959 71.7554 133.261 70.688 139.046 68.2317C139.529 67.7726 140.024 67.3135 140.507 66.8543C141.128 66.269 141.737 65.6836 142.358 65.0982C135.849 66.9691 128.454 67.8185 120.921 67.5545C115.366 67.3594 107.523 66.6018 100.829 64.1226C101.588 64.6276 102.394 65.1327 103.176 65.6262ZM134.756 73.0869L134.078 73.7067C132.767 77.196 133.48 80.8 136.079 83.8761C136.113 83.8646 136.159 83.8532 136.205 83.8417L139.725 83.5318C136.803 80.6508 135.044 76.9664 134.756 73.0869ZM136.562 84.4156C135.331 87.3769 133.572 90.4185 131.732 96.3641C132.41 97.4545 133.089 98.5449 133.779 99.6353C133.261 93.793 135.481 88.2148 139.932 84.186C138.816 84.2664 137.689 84.3467 136.562 84.4156ZM143.106 91.6582C145.682 88.1344 149.075 85.219 152.95 83.1874C150.075 83.44 147.108 83.681 144.141 83.8991C143.06 86.4931 142.703 89.1101 143.106 91.6582ZM143.52 95.3655C143.29 94.8375 143.083 94.2636 142.91 93.6783C142.795 93.8504 142.669 94.0226 142.554 94.2063C140.116 98.1317 138.793 102.528 138.609 107.268C140.415 110.08 142.324 113.042 144.451 116.313C143.37 110.723 143.83 104.8 145.762 99.1762C144.67 97.7644 143.934 96.3182 143.52 95.3655ZM143.876 116.956C142.393 116.244 140.852 115.796 139.276 115.601C139.023 115.567 138.759 115.555 138.505 115.532C138.448 115.532 138.39 115.521 138.333 115.521C138.114 115.509 137.896 115.509 137.689 115.509C137.585 115.509 137.482 115.498 137.378 115.509C137.114 115.509 136.849 115.532 136.585 115.544C136.527 115.544 136.481 115.544 136.424 115.555C135.814 115.601 135.205 115.693 134.595 115.819C134.572 115.819 134.549 115.831 134.515 115.831C133.882 115.968 133.25 116.141 132.629 116.359C132.134 116.531 131.651 116.737 131.168 116.956C130.421 117.3 129.673 117.69 128.948 118.161L128.845 126.907L128.879 126.999C128.902 127.068 128.891 127.125 128.845 127.171L128.776 132.347C132.882 129.627 138.643 128.445 144.198 128.858C147.418 129.099 150.57 129.88 153.307 131.223C150.225 126.666 147.062 121.868 143.876 116.956ZM125.487 140.623C123.095 136.227 120.45 132.382 116.735 128.755C113.135 125.231 108.926 122.155 104.188 119.561C102.612 118.7 100.967 117.885 99.2769 117.128C96.3327 120.342 93.446 123.532 90.6974 126.62C99.7024 129.593 107.58 135.182 112.629 139.372C119.311 144.916 124.498 151.045 127.683 157.151L127.833 145.191C127.051 143.607 126.28 142.081 125.487 140.623ZM127.499 158.081C122.899 150.597 118.103 144.893 112.411 140.129C105.775 134.586 98.1383 130.821 90.2489 127.148C87.4887 130.258 84.7746 133.346 82.1869 136.342C102.428 144.216 118.862 157.897 127.384 173.989C127.407 172.245 127.959 158.54 127.499 158.081ZM86.1777 76.0711C85.7291 76.8287 85.2691 77.5747 84.7746 78.2978C81.3014 83.394 76.5631 87.6868 70.9163 90.8317C79.2888 89.2707 87.6957 87.6409 96.0107 86.011C102.302 80.7541 104.245 73.6952 101.623 65.5918C100.737 64.972 99.7829 64.3177 98.8398 63.6979L90.7319 58.3377C91.3989 63.5143 89.7428 69.9534 86.1777 76.0711ZM90.5939 57.3965L97.9658 62.2632C98.8743 62.5042 99.7714 62.7452 100.668 62.9978C107.189 64.7654 113.342 66.4411 120.346 66.774C127.66 67.1298 135.055 66.3378 142.956 64.3522C143.704 63.8127 149.063 58.8313 149.822 58.1311C149.27 58.4066 148.707 58.6706 148.155 58.9116C130.743 66.6018 109.501 62.0566 90.4329 56.6275C90.4904 56.8915 90.5479 57.1555 90.5939 57.3965ZM143.646 64.8687C143.359 70.4125 145.785 75.4858 150.869 79.9851C151.593 80.6279 152.375 81.2591 153.203 81.879C153.284 81.9363 153.295 82.0397 153.226 82.1085C153.157 82.1774 153.031 82.2003 152.927 82.143C146.648 78.7684 142.634 72.1571 142.853 65.6033L140.346 67.9218C140.369 67.9447 140.392 67.9677 140.403 68.0021C140.449 68.1054 140.415 68.2087 140.311 68.2661C140.058 68.4153 139.794 68.5531 139.529 68.6908C138.264 69.8616 136.999 71.0323 135.734 72.1916C135.883 76.1974 137.378 79.79 140.415 83.4859C150.719 82.5791 161.61 81.5805 171.811 80.4787C159.805 76.8402 152.663 66.2575 151.708 57.4654C149.052 59.8872 146.119 62.596 143.646 64.8687ZM158.885 71.2045C162.657 75.3824 167.591 78.0339 172.363 80.2721C172.421 80.295 172.455 80.3409 172.467 80.3868C174.916 80.1228 177.286 79.8588 179.586 79.5834C180.989 79.4227 182.484 79.239 184.14 79.0324C170.868 73.1557 161.737 60.5874 161.748 48.2371C158.62 51.1066 155.492 53.9646 152.364 56.8456C152.812 62.0221 155.066 66.9806 158.885 71.2045ZM153.916 132.175C145.256 128.571 136.562 128.984 128.753 133.357L128.477 155.716C131.18 150.437 136.7 146.477 143.416 145.042C143.991 144.916 144.578 144.824 145.176 144.744C145.36 144.721 145.532 144.698 145.716 144.675C146.142 144.629 146.579 144.583 147.016 144.548C147.211 144.537 147.395 144.526 147.591 144.514C148.074 144.491 148.569 144.48 149.052 144.48C149.167 144.48 149.293 144.48 149.408 144.48C150.018 144.491 150.639 144.514 151.248 144.56C151.283 144.56 151.317 144.56 151.34 144.56C151.432 144.571 151.524 144.583 151.616 144.594C152.134 144.64 152.651 144.698 153.169 144.767C153.353 144.789 153.525 144.812 153.698 144.847C154.227 144.927 154.744 145.019 155.262 145.122C155.365 145.145 155.469 145.157 155.572 145.18C156.193 145.317 156.791 145.467 157.39 145.639C157.528 145.685 157.666 145.719 157.815 145.765C158.275 145.903 158.735 146.052 159.184 146.213C159.345 146.27 159.517 146.328 159.678 146.396C160.184 146.592 160.679 146.787 161.162 147.005C161.219 147.028 161.288 147.051 161.346 147.085C161.886 147.326 162.404 147.59 162.91 147.866C163.048 147.946 163.174 148.015 163.312 148.095C163.692 148.313 164.048 148.531 164.405 148.772C164.543 148.864 164.669 148.945 164.807 149.036C165.256 149.358 165.704 149.679 166.107 150.023C161.955 144.043 157.953 138.201 153.916 132.175ZM144.106 145.696C142.726 145.972 141.392 146.362 140.127 146.844C134.63 148.967 130.317 153.008 128.442 157.978C128.373 164.359 128.35 171.005 128.316 177.284C132.686 171.751 140.323 167.229 148.856 165.14C153.41 164.027 159.207 163.476 164.899 163.912C169.822 164.29 174.663 165.392 178.574 167.504C174.721 162.202 170.868 156.807 167.073 151.401C160.886 146.5 152.306 144.066 144.106 145.696ZM65.6375 153.972L65.649 153.983C71.6064 146.798 69.3407 149.507 75.045 142.85C77.6327 132.129 76.6091 123.257 71.8249 114.912C67.3281 107.084 59.4962 100.267 49.7782 95.6984C42.4983 96.9839 36.3799 98.0399 30.5606 99.0155C42.1648 104.72 51.5838 112.881 57.8286 122.626C64.1425 132.485 66.7531 143.297 65.3845 153.903C65.465 153.903 65.557 153.926 65.6375 153.972ZM58.5417 162.707C60.4508 160.308 62.4634 157.828 64.522 155.326C64.614 154.626 64.683 153.926 64.752 153.214C66.5806 131.464 52.9293 110.448 29.4681 99.1762L28.847 99.2795C29.3876 101.736 29.9626 105.374 29.7326 109.047C48.5016 123.819 59.2432 143.837 58.5417 162.707ZM28.3065 99.3943C26.0984 99.773 23.8328 100.186 21.6476 100.588C20.4516 100.806 19.2555 101.024 18.0595 101.242C21.9122 103.423 25.6269 105.891 29.1001 108.577C29.2266 105.546 28.801 102.379 28.3065 99.3943ZM3.20065 103.423C3.39616 106.281 3.58017 109.139 3.76418 111.986C4.10919 113.524 4.69573 114.889 5.55827 116.129C8.16892 119.928 13.7467 123.165 19.819 121.306C25.5464 119.538 28.571 115.636 29.0425 109.369C25.3393 106.476 21.3026 103.802 17.0474 101.426C12.9532 102.149 8.11141 102.964 3.20065 103.423ZM56.368 35.6459L50.6292 31.8581C45.9025 28.7361 41.1642 25.6141 36.4375 22.4922C42.2798 35.7262 41.7967 49.9933 34.9884 64.9261C34.2983 66.4411 33.5508 67.9447 32.7342 69.4713C27.0529 80.0884 18.347 90.8203 6.80034 101.46C10.9061 100.726 14.1262 100.29 18.232 99.7271C21.6821 99.2565 22.9932 98.3613 26.2939 96.3297C27.0299 95.882 27.766 95.4114 28.479 94.9408C37.806 88.8346 45.2009 81.328 50.1002 72.9376C56.4945 62.0221 58.5417 49.8211 56.368 35.6459ZM58.6337 37.138L57.1386 36.1509C60.0252 48.0076 58.1506 60.3923 51.6988 71.9965C45.5114 83.13 35.3679 92.7141 23.0852 99.0499C26.9494 98.499 47.8921 95.5721 49.6517 94.4014C59.4732 87.8934 65.9481 81.1558 70.0193 73.2246C73.8835 65.6951 75.2176 57.4884 74.217 47.4222C69.0187 44.0018 63.8319 40.5584 58.6337 37.138ZM150.903 46.3203C141.921 48.9832 132.617 50.6246 123.256 51.187C104.395 52.3348 84.7516 49.1898 67.7536 42.3375L74.1365 46.5384L74.1135 46.3548C74.102 46.217 74.2055 46.1022 74.378 46.0908C74.539 46.0793 74.677 46.1596 74.7115 46.2859C74.7575 46.4695 74.8035 46.6417 74.8495 46.8254L74.8955 47.0549L86.3617 54.6074C86.4537 54.5844 86.5572 54.5959 86.6607 54.6303C109.11 61.2416 132.594 66.8314 151.49 56.5931C154.974 53.3563 158.436 50.1654 161.783 47.1008V46.9746C161.783 46.8713 161.852 46.8024 161.967 46.768C162.024 46.745 162.093 46.745 162.162 46.7565C165.451 43.7378 168.729 40.765 171.903 37.884C166.371 41.006 159.494 43.7722 150.903 46.3203ZM174.491 36.633C170.592 40.1682 166.533 43.8641 162.427 47.6173C162.76 60.289 171.041 71.698 185.141 78.9177C186.751 78.7111 196.515 77.5862 196.986 77.1271C189.626 72.249 183.668 65.8902 179.747 58.7509C175.894 51.7379 174.088 44.0936 174.491 36.633ZM207.475 75.7497C199.735 67.566 194.594 56.88 192.961 45.6546C192.156 40.0878 192.225 34.544 193.168 29.1723C193.915 24.9484 194.985 20.1507 197.239 16.1908C194.215 18.8766 191.19 21.5739 188.234 24.2368C188.073 24.7877 187.924 25.3387 187.774 25.9011C187.36 27.5769 187.038 29.2871 186.831 31.0088C186.532 34.1308 186.498 37.2642 186.739 40.3289V40.3403C186.877 41.8095 187.107 43.2787 187.383 44.7364C187.406 44.8397 187.418 44.943 187.441 45.0463C187.487 45.2758 187.544 45.5054 187.59 45.7235C189.545 54.791 194.134 63.7553 200.942 71.7439C201.471 72.3637 202.023 72.9836 202.575 73.5919C203.346 74.4413 204.14 75.2791 204.968 76.1056L207.475 75.7497ZM204.37 76.2089C203.035 74.9922 201.77 73.7296 200.574 72.4326C199.378 71.1356 198.263 69.7927 197.205 68.4268C196.676 67.7381 196.17 67.0495 195.687 66.3378C190.316 58.5902 187.153 49.7867 186.417 40.3518V40.3403C186.233 38.4924 186.187 36.6444 186.245 34.808C186.256 34.3029 186.268 33.7979 186.302 33.2929C186.348 32.5124 186.417 31.7434 186.509 30.9743C186.509 30.9743 186.509 30.9743 186.509 30.9629C186.705 28.9313 187.004 26.9226 187.406 24.9599C186.325 25.9241 185.267 26.8767 184.232 27.8179C181.115 30.6185 178.148 33.2929 175.261 35.9099C174.548 46.3777 178.24 56.8456 185.463 65.718C187.671 68.4268 194.778 75.7153 198.148 76.9435C198.286 76.8516 203.243 76.3696 204.37 76.2089ZM185.98 124.519C188.579 106.224 193.927 90.8547 202.345 77.5403C200.505 77.7928 198.688 78.0339 196.94 78.2634C182.346 92.1747 173.582 109.38 171.259 127.768C170.052 137.398 170.604 147.361 173.019 157.346C173.053 157.473 172.961 157.576 172.812 157.599C172.662 157.622 172.524 157.553 172.478 157.427C164.359 130.534 173.226 100.301 195.606 78.4471C190.212 79.1357 185.118 79.7326 179.758 80.3753C178.252 80.559 176.676 80.7426 174.916 80.9378C174.33 81.0066 173.72 81.0755 173.088 81.1444C158.54 99.3139 154.066 120.33 160.506 140.325C168.005 151.263 175.94 162.5 184.105 173.737C183.772 157.828 183.645 140.944 185.98 124.519ZM184.174 176.273L184.151 175.08C182.415 172.75 180.69 170.385 178.953 168.009L178.919 167.998C177.734 167.699 176.55 167.39 175.411 167.08C171.455 166.024 167.717 165.025 163.485 164.761C158.183 164.451 152.789 165.014 147.867 166.391C125.084 172.796 128.396 184.618 128.086 199.884C130.881 196.073 134.388 192.641 138.413 189.668C139.414 188.922 140.461 188.211 141.519 187.522C142.588 186.833 143.681 186.179 144.808 185.559C156.044 179.315 169.937 176.136 183.599 177.169C184.358 177.226 185.106 177.295 185.865 177.375L185.635 177.065C185.417 176.778 185.21 176.492 184.991 176.205V176.308C184.991 176.48 184.83 176.606 184.611 176.606C184.404 176.618 184.174 176.48 184.174 176.273Z" fill="#CBCBCB"/>
</svg>
