<svg width="16" height="16" viewBox="0 0 16 16" fill="none" xmlns="http://www.w3.org/2000/svg">
<path d="M8.66797 6.5H4.66797C4.39464 6.5 4.16797 6.27333 4.16797 6C4.16797 5.72667 4.39464 5.5 4.66797 5.5H8.66797C8.9413 5.5 9.16797 5.72667 9.16797 6C9.16797 6.27333 8.9413 6.5 8.66797 6.5Z" fill="#353535"/>
<path d="M12.6946 9.86662C11.6879 9.86662 10.8346 9.11995 10.7546 8.15995C10.7012 7.60662 10.9012 7.06663 11.3012 6.6733C11.6346 6.32663 12.1079 6.1333 12.6079 6.1333H14.0012C14.6612 6.1533 15.1679 6.67327 15.1679 7.31327V8.68665C15.1679 9.32665 14.6613 9.84662 14.0213 9.86662H12.6946ZM13.9812 7.1333H12.6146C12.3812 7.1333 12.1679 7.21996 12.0146 7.37996C11.8213 7.56663 11.7279 7.81995 11.7546 8.07328C11.7879 8.51328 12.2146 8.86662 12.6946 8.86662H14.0012C14.0879 8.86662 14.1679 8.78665 14.1679 8.68665V7.31327C14.1679 7.21327 14.0879 7.13997 13.9812 7.1333Z" fill="#353535"/>
<path d="M10.6654 14.1666H4.66536C2.37203 14.1666 0.832031 12.6266 0.832031 10.3333V5.66665C0.832031 3.61331 2.09868 2.12665 4.06535 1.87998C4.24535 1.85332 4.45203 1.83331 4.66536 1.83331H10.6654C10.8254 1.83331 11.032 1.83998 11.2454 1.87331C13.212 2.09998 14.4987 3.59331 14.4987 5.66665V6.63332C14.4987 6.90665 14.272 7.13332 13.9987 7.13332H12.612C12.3787 7.13332 12.1654 7.21998 12.012 7.37998L12.0054 7.38666C11.8187 7.56666 11.732 7.8133 11.752 8.06663C11.7854 8.50663 12.212 8.85997 12.692 8.85997H13.9987C14.272 8.85997 14.4987 9.08663 14.4987 9.35997V10.3266C14.4987 12.6266 12.9587 14.1666 10.6654 14.1666ZM4.66536 2.83331C4.50536 2.83331 4.35202 2.84664 4.19869 2.86664C2.73202 3.0533 1.83203 4.11998 1.83203 5.66665V10.3333C1.83203 12.0533 2.94536 13.1666 4.66536 13.1666H10.6654C12.3854 13.1666 13.4987 12.0533 13.4987 10.3333V9.86664H12.692C11.6854 9.86664 10.832 9.11997 10.752 8.15997C10.6987 7.61331 10.8987 7.06666 11.2987 6.67999C11.6454 6.32666 12.112 6.13332 12.612 6.13332H13.4987V5.66665C13.4987 4.10665 12.5853 3.0333 11.1053 2.85997C10.9453 2.8333 10.8054 2.83331 10.6654 2.83331H4.66536V2.83331Z" fill="#353535"/>
</svg>
