<svg width="390" height="345" viewBox="0 0 390 345" fill="none" xmlns="http://www.w3.org/2000/svg">
<g clip-path="url(#clip0_1921_48401)">
<path d="M194.999 344.408C290.205 344.408 367.385 267.31 367.385 172.204C367.385 77.0984 290.205 0 194.999 0C99.7931 0 22.6133 77.0984 22.6133 172.204C22.6133 267.31 99.7931 344.408 194.999 344.408Z" fill="white"/>
<path d="M194.999 344.408C290.205 344.408 367.385 267.31 367.385 172.204C367.385 77.0984 290.205 0 194.999 0C99.7931 0 22.6133 77.0984 22.6133 172.204C22.6133 267.31 99.7931 344.408 194.999 344.408Z" fill="#E5F2E9"/>
<path d="M82.9639 230.693L0.523438 230.444L0.862638 118.568L57.8683 118.74L83.2259 144.226L82.9639 230.693Z" fill="white"/>
<path d="M57.8702 118.74L57.793 144.148L83.2278 144.225L57.8702 118.74Z" fill="#CAE4D3"/>
<path d="M83.7464 144.194C83.7432 144.148 83.7342 144.103 83.7196 144.059C83.7138 144.042 83.7096 144.026 83.7023 144.009C83.6777 143.952 83.643 143.9 83.5999 143.856L58.2422 118.371C58.1976 118.327 58.1455 118.291 58.0884 118.266C58.0724 118.259 58.0561 118.253 58.0396 118.248C57.9955 118.232 57.9496 118.223 57.903 118.221C57.892 118.221 57.882 118.214 57.871 118.214L0.865855 118.043C0.726595 118.043 0.593039 118.098 0.494568 118.197C0.396097 118.295 0.340776 118.429 0.340776 118.568L0 230.442C0 230.581 0.0553206 230.715 0.153792 230.813C0.252263 230.911 0.385819 230.967 0.525079 230.967L82.9624 231.218C83.1017 231.218 83.2352 231.163 83.3337 231.064C83.4322 230.966 83.4875 230.832 83.4875 230.693L83.75 144.225C83.7527 144.215 83.7469 144.205 83.7464 144.194ZM58.3887 120.009L70.098 131.772L81.9616 143.696L58.3194 143.624L58.3887 120.009ZM1.05016 229.921L1.38621 119.094L57.3412 119.263L57.2661 144.147C57.2661 144.286 57.3214 144.419 57.4199 144.518C57.5184 144.616 57.6519 144.671 57.7912 144.671L82.7009 144.747L82.4421 230.166L1.05016 229.921Z" fill="#353535"/>
<path d="M251.03 226.216L138.609 225.876L139.072 73.3147L216.808 73.5502L251.388 108.303L251.03 226.216Z" fill="white"/>
<path d="M216.808 73.5503L216.703 108.198L251.388 108.303L216.808 73.5503Z" fill="#CAE4D3"/>
<path d="M251.907 108.272C251.904 108.226 251.895 108.181 251.88 108.137C251.875 108.12 251.87 108.104 251.863 108.085C251.838 108.028 251.804 107.976 251.761 107.931L217.181 73.1784C217.137 73.1346 217.084 73.0991 217.027 73.0735C217.011 73.0662 216.995 73.062 216.978 73.0562C216.934 73.041 216.888 73.0317 216.842 73.0284C216.831 73.0284 216.821 73.0221 216.81 73.0221L139.074 72.7866C138.934 72.7866 138.801 72.8419 138.702 72.9403C138.604 73.0386 138.549 73.172 138.549 73.3111L138.086 225.872C138.086 226.011 138.141 226.145 138.24 226.243C138.338 226.342 138.472 226.397 138.611 226.397L251.03 226.737C251.17 226.737 251.303 226.682 251.402 226.584C251.5 226.485 251.555 226.352 251.555 226.213L251.913 108.3C251.913 108.293 251.907 108.283 251.907 108.272ZM217.329 74.8181L250.121 107.775L217.229 107.675L217.329 74.8181ZM139.136 225.353L139.596 73.8409L216.282 74.0733L216.177 108.197C216.177 108.336 216.232 108.469 216.33 108.568C216.429 108.666 216.562 108.721 216.702 108.721L250.861 108.826L250.507 225.69L139.136 225.353Z" fill="#353535"/>
<path d="M389.214 230.693L306.773 230.443L307.113 118.568L364.118 118.74L389.476 144.225L389.214 230.693Z" fill="white"/>
<path d="M364.12 118.74L364.043 144.148L389.478 144.225L364.12 118.74Z" fill="#CAE4D3"/>
<path d="M389.995 144.194C389.992 144.148 389.983 144.103 389.969 144.059C389.963 144.042 389.958 144.026 389.951 144.009C389.926 143.952 389.892 143.9 389.849 143.855L364.491 118.37C364.446 118.327 364.394 118.291 364.337 118.266C364.321 118.258 364.305 118.253 364.288 118.248C364.244 118.232 364.198 118.223 364.152 118.22C364.141 118.22 364.131 118.214 364.12 118.214L307.114 118.041C306.975 118.041 306.841 118.096 306.743 118.195C306.645 118.293 306.589 118.426 306.589 118.566L306.25 230.441C306.25 230.581 306.305 230.714 306.404 230.812C306.502 230.911 306.636 230.966 306.775 230.966L389.216 231.216C389.355 231.216 389.488 231.16 389.587 231.062C389.685 230.964 389.741 230.83 389.741 230.691L390.003 144.223C390.001 144.215 389.995 144.205 389.995 144.194ZM364.639 120.009L376.344 131.772L388.21 143.696L364.568 143.624L364.639 120.009ZM307.301 229.921L307.637 119.094L363.592 119.263L363.517 144.147C363.517 144.286 363.572 144.419 363.67 144.518C363.769 144.616 363.902 144.671 364.042 144.671L388.951 144.747L388.693 230.166L307.301 229.921Z" fill="#353535"/>
<path d="M251.559 109.554C238.159 94.1849 219.196 84.7627 198.842 83.3597C178.487 81.9567 158.409 88.6878 143.022 102.072C117.316 124.437 109.417 161.618 123.816 192.501C126.708 198.689 130.415 204.462 134.839 209.668L135.785 210.787L65.3232 285.485C64.0347 286.871 63.3471 288.71 63.4103 290.6C63.4734 292.491 64.2824 294.28 65.6606 295.577C67.0388 296.874 68.8744 297.574 70.7673 297.524C72.6602 297.475 74.4566 296.679 75.7649 295.312L146.209 220.626L147.386 221.506C162.587 232.896 181.471 238.263 200.399 236.573C219.326 234.883 236.958 226.254 249.896 212.351C262.833 198.447 270.162 180.252 270.47 161.271C270.777 142.291 264.042 123.868 251.561 109.554H251.559ZM255.977 164.329C254.886 180.11 247.847 194.892 236.279 205.695C224.711 216.498 209.474 222.52 193.638 222.545C192.176 222.545 190.708 222.493 189.236 222.388C178.957 221.691 169.009 218.471 160.274 213.013C151.539 207.555 144.287 200.029 139.162 191.101C134.036 182.173 131.195 172.119 130.891 161.831C130.587 151.544 132.828 141.34 137.417 132.125C142.006 122.911 148.8 114.969 157.198 109.006C165.595 103.043 175.335 99.2414 185.556 97.9392C195.776 96.6371 206.159 97.8745 215.786 101.541C225.413 105.209 233.985 111.192 240.742 118.961C246.156 125.143 250.29 132.335 252.905 140.122C255.519 147.909 256.563 156.136 255.977 164.329Z" fill="#417F56"/>
</g>
<defs>
<clipPath id="clip0_1921_48401">
<rect width="390" height="345" fill="white"/>
</clipPath>
</defs>
</svg>
