<svg width="121" height="25" viewBox="0 0 121 25" fill="none" xmlns="http://www.w3.org/2000/svg">
<path d="M11.5489 3.42705C11.8483 2.50574 13.1517 2.50574 13.4511 3.42705L14.9697 8.10081C15.1035 8.51284 15.4875 8.7918 15.9207 8.7918H20.835C21.8037 8.7918 22.2065 10.0314 21.4228 10.6008L17.447 13.4894C17.0966 13.744 16.9499 14.1954 17.0838 14.6074L18.6024 19.2812C18.9017 20.2025 17.8472 20.9686 17.0635 20.3992L13.0878 17.5106C12.7373 17.256 12.2627 17.256 11.9122 17.5106L7.93648 20.3992C7.15276 20.9686 6.09828 20.2025 6.39763 19.2812L7.91623 14.6074C8.05011 14.1954 7.90345 13.744 7.55296 13.4894L3.57722 10.6008C2.79351 10.0314 3.19628 8.7918 4.16501 8.7918H9.07929C9.51252 8.7918 9.89647 8.51284 10.0303 8.10081L11.5489 3.42705Z" fill="#F4B740"/>
<path d="M36.5 0.5L39.1942 8.7918H47.9127L40.8593 13.9164L43.5534 22.2082L36.5 17.0836L29.4466 22.2082L32.1407 13.9164L25.0873 8.7918H33.8058L36.5 0.5Z" fill="#F4B740"/>
<path d="M60.5 0.5L63.1942 8.7918H71.9127L64.8593 13.9164L67.5534 22.2082L60.5 17.0836L53.4466 22.2082L56.1407 13.9164L49.0873 8.7918H57.8058L60.5 0.5Z" fill="#F4B740"/>
<path d="M84.5 0.5L87.1942 8.7918H95.9127L88.8593 13.9164L91.5534 22.2082L84.5 17.0836L77.4466 22.2082L80.1407 13.9164L73.0873 8.7918H81.8058L84.5 0.5Z" fill="#F4B740"/>
<path d="M110.719 8.94629L110.831 9.29199H118.374L112.565 13.5117L112.271 13.7256L112.384 14.0713L114.603 20.8984L108.794 16.6787L108.5 16.4658L108.206 16.6787L102.396 20.8984L104.616 14.0713L104.729 13.7256L104.435 13.5117L98.626 9.29199H106.169L106.281 8.94629L108.5 2.11719L110.719 8.94629Z" stroke="#F4B740"/>
</svg>
